<svg xmlns="http://www.w3.org/2000/svg" viewBox="0 0 200 200" fill="none">
  
  <defs>
    <pattern id="jaali" x="0" y="0" width="100" height="100" patternUnits="userSpaceOnUse">
      <g stroke="currentColor" stroke-width="0.8" fill="none" opacity="0.4">
        
        <path d="M50 10 L60 40 L90 50 L60 60 L50 90 L40 60 L10 50 L40 40 Z"></path>
        <path d="M50 25 L55 45 L75 50 L55 55 L50 75 L45 55 L25 50 L45 45 Z"></path>
        
        <path d="M0 50 L10 40 L0 30 M100 50 L90 40 L100 30"></path>
        <path d="M50 0 L40 10 L30 0 M50 100 L40 90 L30 100"></path>
      </g>
    </pattern>
  </defs>
  <rect width="200" height="200" fill="url(#jaali)"></rect>
</svg>